# xmcd
#
# Track frame offsets:
#	150
#	16725
#	30000
#	47625
#	60450
#	76800
#	90225
#	106350
#	120525
#	139350
#	155775
#	175650
#	191850
#	208725
#	225150
#	244650
#	261825
#	281175
#
# Disc length: 3955 seconds
#
# Revision: 1
# Processed by: cddbd v1.5.1PL0 Copyright (c) Steve Scherf et al.
# Submitted via: audiograbber 1.83.01
#
DISCID=e50f7112
DTITLE=Various Artist - CS207
DYEAR=1900
DGENRE=Karaoke
TTITLE0=John Micheal Montgomery - The Little Girl
TTITLE1=Aaron Tippin - Kiss This
TTITLE2=Clay Davidson - Unconditional
TTITLE3=Alan Jackson - It Must Be Love
TTITLE4=Toby Keith - Country Comes To Town
TTITLE5=Brooks and Dunn - You'll Always Be Loved By Me
TTITLE6=Darryl Worley - When You Need My Love
TTITLE7=Tracy Lawrence - Lonely
TTITLE8=Billy Gilman - One Voice
TTITLE9=Warren Brothers/Sara Evans - That's The Beat Of A Heart
TTITLE10=Garth Brooks - When You Come Back to Me Again
TTITLE11=Mark Wills - Almost Doesn't Count
TTITLE12=Steve Holy - Blue Moon
TTITLE13=Clint Black - Love She Can't Live Without
TTITLE14=Alan Jackson - The Blues Man
TTITLE15=Steve Wariner - Faith In You
TTITLE16=Alan Jackson/George Strait - Murder On Music Row
TTITLE17=Neal McCoy - Forever Works For Me
EXTD=
EXTT0=
EXTT1=
EXTT2=
EXTT3=
EXTT4=
EXTT5=
EXTT6=
EXTT7=
EXTT8=
EXTT9=
EXTT10=
EXTT11=
EXTT12=
EXTT13=
EXTT14=
EXTT15=
EXTT16=
EXTT17=
PLAYORDER=
